name rise30.9205peak61.366fall85.3838.mot
datacolumns 19
datarows 38
range 6.244977 6.306642
endheader
time	ground_force1_vx	ground_force1_vy	ground_force1_vz	ground_force1_px	ground_force1_py	ground_force1_pz	ground_force2_vx	ground_force2_vy	ground_force2_vz	ground_force2_px	ground_force2_py	ground_force2_pz	ground_torque1_x	ground_torque1_y	ground_torque1_z	ground_torque2_x	ground_torque2_y	ground_torque2_z	
6.244977	0.000000	0.000000	0.000000	0.000000	0.000000	0.000000	53.563137	820.488438	-52.510541	0.334623	0.000000	-0.103451	0.000000	0.000000	0.000000	0.000000	-21.160717	0.000000	
6.246646	0.000000	0.000000	0.000000	0.000000	0.000000	0.000000	53.212042	820.535133	-52.473324	0.333845	0.000000	-0.103449	0.000000	0.000000	0.000000	0.000000	-21.128461	0.000000	
6.248315	0.000000	0.000000	0.000000	0.000000	0.000000	0.000000	52.854508	820.442949	-52.424557	0.333047	0.000000	-0.103449	0.000000	0.000000	0.000000	0.000000	-21.090148	0.000000	
6.249974	0.000000	0.000000	0.000000	0.000000	0.000000	0.000000	52.490442	820.214157	-52.364207	0.332228	0.000000	-0.103451	0.000000	0.000000	0.000000	0.000000	-21.045773	0.000000	
6.251644	0.000000	0.000000	0.000000	0.000000	0.000000	0.000000	52.119769	819.851236	-52.292282	0.331387	0.000000	-0.103454	0.000000	0.000000	0.000000	0.000000	-20.995353	0.000000	
6.253308	0.000000	0.000000	0.000000	0.000000	0.000000	0.000000	51.742430	819.356867	-52.208828	0.330525	0.000000	-0.103459	0.000000	0.000000	0.000000	0.000000	-20.938927	0.000000	
6.254983	0.000000	0.000000	0.000000	0.000000	0.000000	0.000000	51.358387	818.733921	-52.113931	0.329640	0.000000	-0.103466	0.000000	0.000000	0.000000	0.000000	-20.876557	0.000000	
6.256647	0.000000	0.000000	0.000000	0.000000	0.000000	0.000000	50.967617	817.985451	-52.007715	0.328732	0.000000	-0.103475	0.000000	0.000000	0.000000	0.000000	-20.808329	0.000000	
6.258307	0.000000	0.000000	0.000000	0.000000	0.000000	0.000000	50.570121	817.114683	-51.890344	0.327800	0.000000	-0.103485	0.000000	0.000000	0.000000	0.000000	-20.734349	0.000000	
6.259975	0.000000	0.000000	0.000000	0.000000	0.000000	0.000000	50.165917	816.125003	-51.762021	0.326845	0.000000	-0.103497	0.000000	0.000000	0.000000	0.000000	-20.654748	0.000000	
6.261645	0.000000	0.000000	0.000000	0.000000	0.000000	0.000000	49.755042	815.019948	-51.622984	0.325865	0.000000	-0.103510	0.000000	0.000000	0.000000	0.000000	-20.569675	0.000000	
6.263314	0.000000	0.000000	0.000000	0.000000	0.000000	0.000000	49.337556	813.803195	-51.473510	0.324860	0.000000	-0.103526	0.000000	0.000000	0.000000	0.000000	-20.479301	0.000000	
6.264982	0.000000	0.000000	0.000000	0.000000	0.000000	0.000000	48.913538	812.478548	-51.313911	0.323830	0.000000	-0.103543	0.000000	0.000000	0.000000	0.000000	-20.383818	0.000000	
6.266644	0.000000	0.000000	0.000000	0.000000	0.000000	0.000000	48.483084	811.049932	-51.144532	0.322776	0.000000	-0.103562	0.000000	0.000000	0.000000	0.000000	-20.283435	0.000000	
6.268316	0.000000	0.000000	0.000000	0.000000	0.000000	0.000000	48.046315	809.521374	-50.965749	0.321696	0.000000	-0.103582	0.000000	0.000000	0.000000	0.000000	-20.178379	0.000000	
6.269982	0.000000	0.000000	0.000000	0.000000	0.000000	0.000000	47.603366	807.897000	-50.777971	0.320592	0.000000	-0.103605	0.000000	0.000000	0.000000	0.000000	-20.068896	0.000000	
6.271641	0.000000	0.000000	0.000000	0.000000	0.000000	0.000000	47.154396	806.181017	-50.581635	0.319462	0.000000	-0.103629	0.000000	0.000000	0.000000	0.000000	-19.955243	0.000000	
6.273313	0.000000	0.000000	0.000000	0.000000	0.000000	0.000000	46.699579	804.377705	-50.377203	0.318308	0.000000	-0.103654	0.000000	0.000000	0.000000	0.000000	-19.837695	0.000000	
6.274978	0.000000	0.000000	0.000000	0.000000	0.000000	0.000000	46.239107	802.491405	-50.165163	0.317130	0.000000	-0.103681	0.000000	0.000000	0.000000	0.000000	-19.716538	0.000000	
6.276642	0.000000	0.000000	0.000000	0.000000	0.000000	0.000000	45.773190	800.526506	-49.946022	0.315928	0.000000	-0.103710	0.000000	0.000000	0.000000	0.000000	-19.592069	0.000000	
6.278313	0.000000	0.000000	0.000000	0.000000	0.000000	0.000000	45.302054	798.487439	-49.720309	0.314702	0.000000	-0.103740	0.000000	0.000000	0.000000	0.000000	-19.464595	0.000000	
6.279977	0.000000	0.000000	0.000000	0.000000	0.000000	0.000000	44.825939	796.378660	-49.488568	0.313454	0.000000	-0.103772	0.000000	0.000000	0.000000	0.000000	-19.334430	0.000000	
6.281647	0.000000	0.000000	0.000000	0.000000	0.000000	0.000000	44.345101	794.204645	-49.251359	0.312183	0.000000	-0.103805	0.000000	0.000000	0.000000	0.000000	-19.201897	0.000000	
6.283312	0.000000	0.000000	0.000000	0.000000	0.000000	0.000000	43.859808	791.969875	-49.009251	0.310891	0.000000	-0.103839	0.000000	0.000000	0.000000	0.000000	-19.067322	0.000000	
6.284979	0.000000	0.000000	0.000000	0.000000	0.000000	0.000000	43.370339	789.678828	-48.762823	0.309579	0.000000	-0.103875	0.000000	0.000000	0.000000	0.000000	-18.931035	0.000000	
6.286646	0.000000	0.000000	0.000000	0.000000	0.000000	0.000000	42.876986	787.335970	-48.512661	0.308246	0.000000	-0.103912	0.000000	0.000000	0.000000	0.000000	-18.793366	0.000000	
6.288313	0.000000	0.000000	0.000000	0.000000	0.000000	0.000000	42.380049	784.945745	-48.259350	0.306896	0.000000	-0.103950	0.000000	0.000000	0.000000	0.000000	-18.654649	0.000000	
6.289982	0.000000	0.000000	0.000000	0.000000	0.000000	0.000000	41.879838	782.512566	-48.003480	0.305527	0.000000	-0.103989	0.000000	0.000000	0.000000	0.000000	-18.515212	0.000000	
6.291644	0.000000	0.000000	0.000000	0.000000	0.000000	0.000000	41.376667	780.040805	-47.745636	0.304142	0.000000	-0.104030	0.000000	0.000000	0.000000	0.000000	-18.375383	0.000000	
6.293311	0.000000	0.000000	0.000000	0.000000	0.000000	0.000000	40.870860	777.534787	-47.486397	0.302743	0.000000	-0.104071	0.000000	0.000000	0.000000	0.000000	-18.235483	0.000000	
6.294979	0.000000	0.000000	0.000000	0.000000	0.000000	0.000000	40.362742	774.998782	-47.226337	0.301329	0.000000	-0.104113	0.000000	0.000000	0.000000	0.000000	-18.095829	0.000000	
6.296646	0.000000	0.000000	0.000000	0.000000	0.000000	0.000000	39.852644	772.436995	-46.966016	0.299904	0.000000	-0.104156	0.000000	0.000000	0.000000	0.000000	-17.956730	0.000000	
6.298308	0.000000	0.000000	0.000000	0.000000	0.000000	0.000000	39.340896	769.853563	-46.705983	0.298467	0.000000	-0.104199	0.000000	0.000000	0.000000	0.000000	-17.818485	0.000000	
6.299973	0.000000	0.000000	0.000000	0.000000	0.000000	0.000000	38.827832	767.252547	-46.446772	0.297022	0.000000	-0.104243	0.000000	0.000000	0.000000	0.000000	-17.681384	0.000000	
6.301648	0.000000	0.000000	0.000000	0.000000	0.000000	0.000000	38.313783	764.637925	-46.188898	0.295569	0.000000	-0.104288	0.000000	0.000000	0.000000	0.000000	-17.545705	0.000000	
6.303312	0.000000	0.000000	0.000000	0.000000	0.000000	0.000000	37.799079	762.013588	-45.932857	0.294110	0.000000	-0.104332	0.000000	0.000000	0.000000	0.000000	-17.411712	0.000000	
6.304977	0.000000	0.000000	0.000000	0.000000	0.000000	0.000000	37.284046	759.383335	-45.679124	0.292647	0.000000	-0.104378	0.000000	0.000000	0.000000	0.000000	-17.279659	0.000000	
6.306642	0.000000	0.000000	0.000000	0.000000	0.000000	0.000000	36.769009	756.750869	-45.428148	0.291182	0.000000	-0.104423	0.000000	0.000000	0.000000	0.000000	-17.149783	0.000000	
